<svg height="682pt" viewBox="-61 -21 682 682.66669" width="682pt" xmlns="http://www.w3.org/2000/svg"><path d="m461.871094 392.871094v-76.433594c0-64.992188-38.613282-122.984375-98.367188-147.746094-8.671875-3.59375-14.273437-11.890625-14.273437-21.136718 0-26.84375-21.195313-46.558594-45.335938-47.023438-26.324219-.550781-47.121093 21.515625-47.121093 47.023438 0 9.246093-5.597657 17.546874-14.265626 21.136718-59.761718 24.765625-98.375 82.757813-98.375 147.746094v76.433594zm0 0"/><path d="m513.660156 488.671875-39.4375-58.300781h-342.433594l-39.4375 58.296875c-20.714843 30.613281.566407 72.949219 39.03125 72.949219h343.238282c38.472656 0 59.742187-42.335938 39.039062-72.945313zm0 0"/><path d="m141.703125 150.492188h-85.398437l99.375-118.875c9.273437-10.558594 4.601562-31.617188-13.976563-31.617188h-125.515625c-24.824219 0-24.789062 37.5 0 37.5h85.402344l-99.429688 118.9375c-9.203125 10.574219-4.511718 31.554688 14.027344 31.554688h125.515625c24.824219 0 24.789063-37.5 0-37.5zm0 0"/><path d="m538.6875 134.65625h-35.066406l49.058594-58.585938c9.261718-10.558593 4.589843-31.613281-13.984376-31.613281h-75.226562c-24.824219 0-24.789062 37.5 0 37.5h35.074219l-48.785157 58.28125c-9.628906 10.449219-5.046874 31.917969 13.710938 31.917969h75.21875c24.832031 0 24.792969-37.5 0-37.5zm0 0"/><path d="m224.894531 599.117188c17.398438 24.726562 45.929688 40.882812 78.109375 40.882812 32.183594 0 60.714844-16.15625 78.113282-40.882812zm0 0"/></svg>